# xmcd
#
# Track frame offsets:
#	150
#	24330
#	59945
#	95075
#	124525
#	155455
#	181392
#	218037
#
# Disc length: 3196 seconds
#
# Revision: 0
# Processed by: cddbd v1.5.2PL0 Copyright (c) Steve Scherf et al.
# Submitted via: EasyCDDAExtractor 16.0.6.1
#
DISCID=6d0c7a08
DTITLE=MOTION and OCTAVE and GRAVITY - DRIFTWOULD (1997)
DYEAR=1997
DGENRE=
TTITLE0=DIFFERENT COLOURS
TTITLE1=SNEEZE OF THE CENTURY
TTITLE2=TROUBLED RAYE
TTITLE3=SUN THIEF
TTITLE4=CASTING MAROON
TTITLE5=BENEFITS ALONE
TTITLE6=THE FALL OF MESA G.
TTITLE7=HEADED FOR MIDNIGHT
EXTD=
EXTT0=
EXTT1=
EXTT2=
EXTT3=
EXTT4=
EXTT5=
EXTT6=
EXTT7=
PLAYORDER=
